<svg xmlns="http://www.w3.org/2000/svg" width="48" height="47" viewBox="0 0 48 47">
  <g fill="none">
    <path fill="#353745" d="M27.29,21.51 C27.7752608,21.8322227 28.4206221,21.7664494 28.8309009,21.352956 C29.2411796,20.9394625 29.3019141,20.2936075 28.9759138,19.8108764 C28.6499136,19.3281452 28.0281279,19.1432129 27.4913036,19.3693215 C26.9544792,19.5954302 26.6523823,20.1694988 26.77,20.74 C26.8339543,21.0556407 27.0211018,21.3327629 27.29,21.51 Z"/>
    <path fill="#5ACDA8" d="M33.14,43 C32.66,43.2 32.14,43.38 31.69,43.54 C28.8949245,44.4815496 25.9437739,44.8720931 23,44.69 C15.5826332,44.2051948 8.88336107,40.0883236 5.1,33.69 C3.61,31.15 -0.75,22.3 5.83,14.96 C6.02,14.75 6.23,14.54 6.46,14.32 C6.82799323,14.0150147 6.96430956,13.5114931 6.80043325,13.0625169 C6.63655693,12.6135407 6.20793389,12.3162219 5.73,12.32 C5.43056968,12.3065365 5.13842144,12.4147395 4.92,12.62 C4.64,12.88 4.38,13.14 4.15,13.4 C-3.46,21.88 1.46,31.91 3.15,34.78 C7.30673306,41.8337792 14.6805272,46.3778331 22.85,46.92 C23.39,46.92 23.93,46.97 24.48,46.97 C27.1716334,46.9618571 29.844907,46.5264376 32.4,45.68 C32.94,45.5 33.48,45.3 34.01,45.09 C34.4327364,44.9137069 34.7072416,44.4996685 34.7050501,44.0416505 C34.7028587,43.5836325 34.424404,43.1722398 34,43 C33.7247557,42.8855551 33.4152443,42.8855551 33.14,43 Z"/>
    <path fill="#5ACDA8" d="M46.9,18.28 C44.9629629,10.5039766 39.3064983,4.18865181 31.79,1.41 C28.73,0.29 18.21,-2.71 11.37,6.09 C10.9363142,6.65484614 10.5484153,7.25341431 10.21,7.88 C9.77066284,8.68637136 9.4025975,9.52957561 9.11,10.4 C8.57968933,11.9651585 8.31273131,13.6074572 8.32,15.26 C8.34579068,16.9276547 8.55369064,18.5875012 8.94,20.21 C9.69778744,23.4661524 11.1209374,26.5303509 13.12,29.21 C15.1837861,31.9312654 17.7798006,34.204054 20.75,35.89 C20.8481823,36.043489 20.9350779,36.2039117 21.01,36.37 C21.1238498,36.6318134 21.2610719,36.8828294 21.42,37.12 C21.9156698,37.8259933 22.6126605,38.3661611 23.42,38.67 C24.898375,39.2386208 26.563722,39.0243437 27.85,38.1 C28.6040092,37.5772759 29.1715379,36.8275775 29.47,35.96 C29.688477,35.2113539 29.816061,34.4391349 29.85,33.66 C29.8019747,32.1427911 30.445794,30.6859198 31.6,29.7 C32.5284494,28.8346735 33.7324757,28.324733 35,28.26 C36.2732172,28.2491012 37.4651873,27.632693 38.21,26.6 C39.2144165,25.1112045 39.3219127,23.1916299 38.49,21.6 C38.0827673,20.8712748 37.4891723,20.2638752 36.77,19.84 C36.5286996,19.6997645 36.2781185,19.5761445 36.02,19.47 C35.65,19.31 35.56,19.27 35.42,19.06 C33.5934684,16.3693656 31.2475052,14.0710016 28.52,12.3 C25.8617511,10.5735762 22.8878515,9.39081387 19.77,8.82 C18.1963407,8.53696872 16.5986218,8.40968713 15,8.44 C14.3759182,8.44000002 13.87,8.94591825 13.87,9.57 C13.87,10.1940818 14.3759182,10.7 15,10.7 C19.3287633,10.6384003 23.5783451,11.8635049 27.21,14.22 C29.680741,15.8267639 31.8056444,17.9108692 33.46,20.35 C33.846216,20.9159342 34.4033805,21.3434441 35.05,21.57 C35.2148128,21.6361892 35.3751505,21.7130177 35.53,21.8 C35.9032533,22.0219989 36.2104927,22.3395947 36.42,22.72 C36.8357161,23.5922301 36.7477541,24.6210034 36.19,25.41 C35.97,25.77 35.64,25.87 34.57,26.03 C32.8579807,26.1741939 31.2461376,26.8972307 30,28.08 C28.4444046,29.4318168 27.5477628,31.3891203 27.54,33.45 C27.5176191,34.0556243 27.4236319,34.6564708 27.26,35.24 C27.1016603,35.6471791 26.8224904,35.9961415 26.46,36.24 C25.7948754,36.7093395 24.9389241,36.8144564 24.18,36.52 C23.7750965,36.3832632 23.4246403,36.120421 23.18,35.77 C23.1013607,35.6413839 23.0312113,35.5077658 22.97,35.37 C22.754349,34.7803267 22.3591212,34.2731759 21.84,33.92 C19.1152632,32.3850664 16.7331443,30.30922 14.84,27.82 C13.0352928,25.3981997 11.7485768,22.6307391 11.06,19.69 C10.7115227,18.2281535 10.5237427,16.7326203 10.5,15.23 C10.4981605,13.83185 10.7279373,12.4430519 11.18,11.12 C11.4543088,10.3852784 11.7922593,9.67591678 12.19,9 C12.4829814,8.47740895 12.8173859,7.9791463 13.19,7.51 C19.05,-0.12 28.32,2.54 31,3.53 C37.8129924,6.05479819 42.9400231,11.7806062 44.7,18.83 C45.3905835,21.626171 45.5332085,24.5296077 45.12,27.38 C44.811549,29.5907152 44.1604001,31.7398439 43.19,33.75 C42.6781525,34.8204883 42.0794844,35.8472544 41.4,36.82 C41.119693,37.2305653 40.8158513,37.6245578 40.49,38 L40.49,38.06 C39.3,39.33 38,40 37,39.93 C36,39.86 34.72,38.84 33.69,37 C33.4434077,36.5829149 33.2835483,36.120343 33.22,35.64 C33.9672051,36.0842853 34.6033154,36.693036 35.08,37.42 C35.297932,37.762975 35.6822845,37.9636316 36.0882755,37.9463844 C36.4942666,37.9291373 36.8602165,37.6966066 37.0482755,37.3363844 C37.2363346,36.9761623 37.217932,36.542975 37,36.2 C36.0205847,34.642711 34.4996112,33.5028714 32.73,33 C32.2538772,32.8727201 31.7505045,33.0716335 31.49,33.49 C30.704898,34.9548645 30.7973398,36.7343699 31.73,38.11 C33.15,40.59 34.83,41.95 36.73,42.11 L37.17,42.11 C39.1506309,41.9739107 40.9747947,40.9852139 42.17,39.4 C42.5516794,38.9738928 42.9089182,38.5265097 43.24,38.06 C43.9983585,36.9866648 44.6672741,35.8528529 45.24,34.67 C46.3109279,32.4613313 47.0328405,30.0999351 47.38,27.67 C47.82621,24.5382958 47.6632239,21.3498801 46.9,18.28 Z"/>
  </g>
</svg>
