<svg xmlns="http://www.w3.org/2000/svg" :width="width" :height="height" viewBox="0 0 68 78">
    <g fill="none">
      <path
        fill="#34C9A2"
        d="M11.0322581 17C7.70629032 17 5 14.3782813 5 11.15625 5 7.93421875 7.70629032 5.3125 11.0322581 5.3125L18.7096774 5.3125C19.9194194 5.3125 20.9032258 4.3594375 20.9032258 3.1875 20.9032258 2.0155625 19.9194194 1.0625 18.7096774 1.0625L18.7096774 0C20.5242903 0 22 1.42959375 22 3.1875 22 4.94540625 20.5242903 6.375 18.7096774 6.375L11.0322581 6.375C8.3106129 6.375 6.09677419 8.5201875 6.09677419 11.15625 6.09677419 13.7923125 8.3106129 15.9375 11.0322581 15.9375L11.0322581 17zM45.3191489 77C43.4886383 77 42 75.5263571 42 73.7142857 42 71.9022143 43.4886383 70.4285714 45.3191489 70.4285714L59.1489362 70.4285714C63.4195745 70.4285714 66.893617 66.9895238 66.893617 62.7619048 66.893617 58.5342857 63.4195745 55.0952381 59.1489362 55.0952381L59.1489362 54C64.0291915 54 68 57.9308095 68 62.7619048 68 67.593 64.0291915 71.5238095 59.1489362 71.5238095L45.3191489 71.5238095C44.0988085 71.5238095 43.106383 72.5062381 43.106383 73.7142857 43.106383 74.9223333 44.0988085 75.9047619 45.3191489 75.9047619L45.3191489 77z"
      />
      <circle cx="34.5" cy="38.5" r="32.5" fill="#E4E5E7" />
      <circle cx="34.5" cy="38.5" r="24.5" fill="#FFF" />
      <path
        fill="#353745"
        d="M34.5,69 C17.6819732,69 4,55.3174821 4,38.5 C4,21.6825179 17.6819732,8 34.5,8 C51.3180268,8 65,21.6825179 65,38.5 C65,55.3174821 51.3180268,69 34.5,69 Z M34.5,9.08928571 C18.2832589,9.08928571 5.08928571,22.2827143 5.08928571,38.5 C5.08928571,54.7172857 18.2832589,67.9107143 34.5,67.9107143 C50.7167411,67.9107143 63.9107143,54.7172857 63.9107143,38.5 C63.9107143,22.2827143 50.7172857,9.08928571 34.5,9.08928571 Z"
      />
      <g fill="#000" transform="translate(7 11)">
        <rect width="1.089" height="5.4" x="26.767" />
        <rect width="1.089" height="5.4" x="26.767" y="48.6" />
        <rect width="5.446" height="1.08" x=".084" y="26.46" />
        <rect width="5.446" height="1.08" x="49.094" y="26.46" />
      </g>
      <g fill="#C4C4C4" transform="translate(15 19)">
        <rect width="1.096" height="3.877" x="37.246" y=".321" transform="rotate(45 37.794 2.259)" />
        <rect width="1.096" height="3.877" x="1.28" y="35.802" transform="rotate(45 1.828 37.74)" />
        <rect width="3.93" height="1.081" x="-.138" y="1.719" transform="rotate(45 1.827 2.26)" />
        <rect
          width="3.93"
          height="1.081"
          x="35.829"
          y="37.199"
          transform="rotate(45 37.794 37.74)"
        />
      </g>
      <g fill="#34C9A2" transform="translate(17 7)">
        <polygon points="13.53 33.366 .393 .308 20.638 29.635" />
        <polygon points="20.638 29.635 33.775 62.693 13.53 33.366" />
      </g>
      <path
        fill="#000"
        d="M34.5,46 C30.3644444,46 27,42.6355556 27,38.5 C27,34.3644444 30.3644444,31 34.5,31 C38.6355556,31 42,34.3644444 42,38.5 C42,42.6355556 38.6361111,46 34.5,46 Z M34.5,32.1116667 C30.9772222,32.1116667 28.1111111,34.9777778 28.1111111,38.5005556 C28.1111111,42.0233333 30.9772222,44.8894444 34.5,44.8894444 C38.0227778,44.8894444 40.8888889,42.0233333 40.8888889,38.5005556 C40.8888889,34.9777778 38.0227778,32.1116667 34.5,32.1116667 Z"
      />
      <path
        fill="#000"
        d="M34.5,41 C33.1217587,41 32,39.8785521 32,38.5 C32,37.1214479 33.121195,36 34.5,36 C35.878805,36 37,37.1214479 37,38.5 C37,39.8785521 35.878805,41 34.5,41 Z M34.5,37.1270862 C33.7429538,37.1270862 33.1273957,37.742783 33.1273957,38.4994362 C33.1273957,39.2560893 33.7429538,39.8717862 34.5,39.8717862 C35.2570462,39.8717862 35.8726043,39.2560893 35.8726043,38.4994362 C35.8726043,37.742783 35.2570462,37.1270862 34.5,37.1270862 Z"
      />
      <g transform="translate(54 1)">
        <path
          fill="#34C9A2"
          d="M13.30224,7.96581818 C13.30224,7.96581818 13.2972,7.96581818 13.29552,7.96581818 C13.44168,7.43945455 13.52624,6.88909091 13.52624,6.318 C13.52624,2.82872727 10.62152,0 7.03976,0 C3.45688,0 0.55272,2.82872727 0.55272,6.318 C0.55272,6.88909091 0.63728,7.43945455 0.78344,7.96581818 L0.77784,7.96581818 C0.77784,7.96581818 0.78456,7.98218182 0.79296,8.00454545 C0.91448,8.43218182 7.0392,23.5456364 7.03976,23.5456364 C7.03976,23.5456364 13.16224,8.43272727 13.28264,8.01272727 L13.30224,7.96581818 Z"
        />
        <ellipse cx="7.04" cy="6.318" fill="#FFF" rx="2.8" ry="2.727" />
      </g>
      <path
        fill="#000"
        d="M9.00026726,78 L7.65006682,70.349706 L0,69 L18,60 L9.00026726,78 Z M3.37229399,68.509295 L8.57265033,69.4270951 L9.49095768,74.6281404 L15.6090869,62.3899151 L3.37229399,68.509295 Z"
      />
      <rect width="10" height="1" x="2" y="52" fill="#000" />
      <rect width="10" height="1" x="2" y="54" fill="#000" />
      <rect width="10" height="1" x="2" y="57" fill="#000" />
      <path
        fill="#000"
        d="M49 4C47.8971429 4 47 3.10285714 47 2 47 .897142857 47.8971429 0 49 0 50.1028571 0 51 .897142857 51 2 51 3.10285714 50.1028571 4 49 4zM49 1.14285714C48.5274286 1.14285714 48.1428571 1.52742857 48.1428571 2 48.1428571 2.47257143 48.5274286 2.85714286 49 2.85714286 49.4725714 2.85714286 49.8571429 2.47257143 49.8571429 2 49.8571429 1.52742857 49.4725714 1.14285714 49 1.14285714zM44 4C42.8971429 4 42 3.10285714 42 2 42 .897142857 42.8971429 0 44 0 45.1028571 0 46 .897142857 46 2 46 3.10285714 45.1028571 4 44 4zM44 1.14285714C43.5274286 1.14285714 43.1428571 1.52742857 43.1428571 2 43.1428571 2.47257143 43.5274286 2.85714286 44 2.85714286 44.4725714 2.85714286 44.8571429 2.47257143 44.8571429 2 44.8571429 1.52742857 44.4725714 1.14285714 44 1.14285714zM39 4C37.8971429 4 37 3.10285714 37 2 37 .897142857 37.8971429 0 39 0 40.1028571 0 41 .897142857 41 2 41 3.10285714 40.1028571 4 39 4zM39 1.14285714C38.5274286 1.14285714 38.1428571 1.52742857 38.1428571 2 38.1428571 2.47257143 38.5274286 2.85714286 39 2.85714286 39.4725714 2.85714286 39.8571429 2.47257143 39.8571429 2 39.8571429 1.52742857 39.4725714 1.14285714 39 1.14285714zM60 78C58.8971429 78 58 77.1028571 58 76 58 74.8971429 58.8971429 74 60 74 61.1028571 74 62 74.8971429 62 76 62 77.1028571 61.1028571 78 60 78zM60 75.1428571C59.5274286 75.1428571 59.1428571 75.5274286 59.1428571 76 59.1428571 76.4725714 59.5274286 76.8571429 60 76.8571429 60.4725714 76.8571429 60.8571429 76.4725714 60.8571429 76 60.8571429 75.5274286 60.4725714 75.1428571 60 75.1428571zM55 78C53.8971429 78 53 77.1028571 53 76 53 74.8971429 53.8971429 74 55 74 56.1028571 74 57 74.8971429 57 76 57 77.1028571 56.1028571 78 55 78zM55 75.1428571C54.5274286 75.1428571 54.1428571 75.5274286 54.1428571 76 54.1428571 76.4725714 54.5274286 76.8571429 55 76.8571429 55.4725714 76.8571429 55.8571429 76.4725714 55.8571429 76 55.8571429 75.5274286 55.4725714 75.1428571 55 75.1428571zM49 78C47.8971429 78 47 77.1028571 47 76 47 74.8971429 47.8971429 74 49 74 50.1028571 74 51 74.8971429 51 76 51 77.1028571 50.1028571 78 49 78zM49 75.1428571C48.5274286 75.1428571 48.1428571 75.5274286 48.1428571 76 48.1428571 76.4725714 48.5274286 76.8571429 49 76.8571429 49.4725714 76.8571429 49.8571429 76.4725714 49.8571429 76 49.8571429 75.5274286 49.4725714 75.1428571 49 75.1428571z"
      />
    </g>
  </svg>
