<svg xmlns="http://www.w3.org/2000/svg" :width="width" :height="height" viewBox="0 0 50 50">
    <g :fill="color">
      <path
        d="M23.7324679 8.07453187C27.2220325 8.27548472 29.9997014 11.1777038 29.9997014 14.7166729 29.9997014 18.3852035 27.0150769 21.3693595 23.3465928 21.3693595 19.7719055 21.3693595 16.9744992 18.5856879 16.695267 14.7505635 16.218735 8.21918789 19.5118904 2.88809409 22.4768275.308141156 22.655375.152469281 22.9227018.155234672 23.0993753.314047359 23.3639842.553953516 23.5447812.737937844 23.9407825 1.14171938 24.2419517 1.44795347 24.6713269 1.88557866 25.3648442 2.57909419 25.5246395 2.73884433 25.5479836 2.99014097 25.4193109 3.17646909 23.7182647 5.64565659 23.6720467 7.42132903 23.7324679 8.07453187zM7.08453164 8.07453188C10.5745161 8.27459423 13.352235 11.1772817 13.352235 14.7166725 13.352235 18.3852031 10.3676095 21.3693591 6.69907852 21.3693591 3.12439106 21.3693591.326562891 18.5856875.0463910156 14.7510316L.0463910156 14.7505631C-.429202641 8.21782847 2.86442241 2.88762558 5.82935972.307672219 6.00785981.152937797 6.27518798.155234672 6.45190669.314047359 6.71646905.554375531 6.89778145.738875297 7.29509395 1.14354731 7.59584423 1.44978183 8.02475006 1.88693808 8.71690659 2.57909419 8.87665627 2.73884433 8.89957842 2.99014097 8.77137511 3.17646909 7.06850053 5.64884395 7.02364102 7.4231565 7.08453164 8.07453188z"
      />
    </g>
  </svg>
